<svg version="1.1" id="Layer_1" xmlns="http://www.w3.org/2000/svg" xmlns:xlink="http://www.w3.org/1999/xlink" x="0px" y="0px"
	 viewBox="0 0 787.1 220.5" style="enable-background:new 0 0 787.1 220.5;" xml:space="preserve">
<style type="text/css">
	.st0{fill:currentcolor;}
</style>
<g>
	<path class="st0" d="M33.8,165.8c-0.8-1.3-1.9-0.6-2.7-0.8c-1.2-1.4-1.4-3.3-2.9-4.4c-0.4-0.3-0.4-1.1-0.7-1.7
		c-0.7-1.2-1.4-2.4-1.8-3.8c-0.1-0.3-0.3-0.5-0.4-0.8c-0.1-0.3,0-0.7,0-1c-1.5-1.7-2.8-3.6-3.1-6c-0.1-1.2-0.9-2.3-1.5-3.5
		c0.2-0.2,0.5-0.5,0.8-0.8c0.5-0.6,0.4-1.4-0.2-1.7c-2.4-1-2.3-3.2-2.5-5.2c0-0.2-0.1-0.3-0.1-0.5c-0.3-0.3-0.6-0.6-0.9-0.9
		c0.3-2.6-0.6-4.7-2.6-6c-0.7-0.9,0.1-1.9-0.9-2.5c1.3-0.8-0.3-1.5,0-2.3c0.2-0.8,0-1.7,0-2.5s0-1.7,0-2.6c-0.3-0.3-0.7-0.8-1-1.1
		c0.1-0.2,0.1-0.4,0.1-0.5c0.3-0.5,0.8-1,1-1.6c0.7-1.5,0.5-1.9-1.1-2.7c-0.4-0.9,0-1.4,0.9-1.5c0-1.1,0-2.1,0-3.2
		c0-0.8-0.3-1.6,0.4-2.3c0.3-0.3,0.1-1,0-1.5c-0.1-0.9-0.4-1.9-0.5-2.8c0-0.8,0.4-1.7,0.4-2.5c0-1.2,0-2.4,0.8-3.4
		c0.1-0.2,0.3-0.4,0.2-0.6c-0.4-2,0.7-3.8,0.5-5.8c-0.1-0.7,0-1.4,0.5-2.1c0.8-1.2,0.6-2.7,1-4.1c0.2-0.7,0.2-1.4,0.6-2
		c0.5-0.9,1.2-1.7,1-2.8c1.1-1.1,0.9-2.8,1.7-4c0.7-1.1,1-2.4,1.3-3.7c0.3-1,0.9-2,1.3-2.9c0.7-1.5,1.3-3.1,2.2-4.6
		c0.5-0.8,0.9-1.6,1-2.6c0.1-0.6,0.8-1,0.9-1.6c0.5-1.9,1.8-3.2,3.4-4.6c0.9,0.2,2.1,0.4,3.4,0.6c0.4-1.5,1.5-2.6,2.7-3.8
		c1.7-1.7,3.4-3.4,5.1-5.1c1-1,1.8-2,2.5-3.2c0.8-1.5,2.2-2.8,3.4-4.1c0.5-0.5,1.3-0.6,1.1-1.6c0-0.2,0.7-0.6,1.1-0.8
		c2-0.8,3.8-1.8,4.9-3.8c0.6-1.1,1.6-2.1,3-2.6c-0.1-0.5-0.3-1-0.5-1.6c0.1-0.1,0.4-0.4,0.6-0.6c0.8,0,1.7,0,2.7,0
		c0.3-0.5,0.6-1.2,1.1-1.7c0.4-0.4,1-1,1.5-1c2.1-0.3,2.8-2.6,4.7-3.2c1.2,0,2.3,0,3.5,0c1-1,2-2.1,3.6-2c1.1-1,2.7-0.9,3.8-1.6
		c0.9-0.5,1.6-0.9,2.6-1c0.3,0,0.7-0.3,1-0.6c1.3-1.4,3.3-1.8,4.9-2.7c0.8-0.4,1.9-0.1,3.1-0.1c0.4-0.5,0.9-1.1,1.3-1.7
		c1.9,0.4,3.5,0.8,5.3,1.2c0-0.7,0-1.3,0-1.8c1.5-0.7,3-0.9,4.5-0.8c0.3,0,0.8,0,0.9-0.1c0.8-1.2,2.1-0.7,3.2-0.8
		c1.7-0.2,3.4-0.4,5-0.5c1.7-0.1,3.3,0,5.2,0c0.7-0.8,1.5-1.5,2.7-0.5c0.6,0.5,1.3,0.5,2,0.5c1.9,0,3.8-0.1,5.7,0
		c1.4,0,2.9-0.1,4.3,0.4c0.9,0.3,2.2,0.5,3.3-0.4c0.3-0.2,1,0,1.4,0c0.3,0.9,0.7,1.5,1.9,1.6c0.9,0,1.8,0.5,2.8,0.5
		c0.9-0.1,1.8,0.2,2.6-0.6c0.5,0.5,0.8,1.2,1.3,1.5c0.5,0.3,1.2-0.1,1.8,0.4c0.5,0.4,1.3,0.3,2-0.3c0.6-0.4,1.5-0.1,1.6,0.6
		c0.2,0.9,1,0.6,1.4,0.9c0.9,0.8,2.4,0,3,1.4c1.1,0.2,2.2,0.4,3.3,0.6c0.2,0,0.5,0.1,0.6,0.3c0.8,0.8,1.8,0.9,2.7,1.3
		c0.9,0.4,1.6,1.2,2.7,1.4c0.9,0.2,1.5,1.2,2.5,1.2c0.3,0,0.5,0.7,0.9,1.3c0.9-0.2,2-0.5,3.1-0.5c1,0,2,0.4,3.1,0.6
		c0,0.5,0.1,1.1,0.1,1.7c0.4,0,0.8,0,1.3,0c0.3,1.5,0,3,0.2,4.5c0.4,0,0.8,0,1.3,0c0,0.5,0.1,0.9,0.1,1.3c1.5,0.2,2.6,1.9,4.4,1.2
		c0,0.8,0.1,1.3,0.1,1.9c0.7,0.2,1.5,0.2,2,0.6c0.4,0.4,0.5,1.3,0.7,2c0.9,0.2,2,0.4,3.1,0.6c0.4,0.9-0.3,2,1.3,2.6c0.3,0,1,0,1.8,0
		c0,0.8,0,1.5,0,2.2c0.3,0.3,0.6,0.6,0.8,0.8c0.7,0,1.3,0,2.1,0c0.1,0.2,0.1,0.4,0.2,0.6c0.2,0.4,0.4,1.2,0.6,1.2c1.4,0.1,2,1.2,3,2
		c0.2,0.2,0.6,0.2,0.9,0.4c0,0.8,0,1.6,0,2.6c3,2.2,5.3,4.8,4.4,8.9c1.2,1.1,2.4,2.1,3.4,3.3c0.4,0.5,0.8,0.9,0.7,1.7
		c-0.1,1,0.6,1.2,1.5,1.5c-0.4,1.6,0.8,2.7,1.4,4.2c-1.3,0.7-1,1.8-0.2,3c0.3,0,0.9,0,1.2,0c1.3,0.5,1,2.2,2.6,2.1
		c-0.1,1.2-0.1,2.5,1.6,2.6c-0.3,1.1-1.1,1.9-0.2,3.1c0.4,0.4,0.3,1.6,0,2.1c-0.6,0.9-0.1,1.7-0.5,2.8c1.2-0.2,2.1-0.4,3-0.6
		c0,0.4,0,0.8,0,1.3c-0.3,0.5-1.6-0.5-1.4,1.1c-0.8,0-1.6,0-2.6,0c0.5,1.3,0.9,2.5,1.4,3.9c0.2,0.1,0.7,0.4,1.3,0.9
		c-0.4,0.4-0.8,0.8-1.2,1.2c1.1,1.1,1,2.8,1.5,4.2c0.3,0.8,0.4,1.7,1.3,1.9c-0.1,0.7-0.3,1.5-0.4,2.1c0.6,0.4,1.1,0.7,1.5,0.9
		c0,1.2,0,2.2,0,3.3c-2.3,0.2-2.3,0.2-2.5,2.3c-0.5,0.3-1,0.6-1.4,0.9c-0.7,0.8-1.2,1.2-1.9,1.3c-0.2,0-0.6-0.1-0.7,0
		c-1.6,1.3-2.7,0-3.8-0.7c-0.9-0.6-0.9-1.8-1.1-2.8c-0.2-0.7-0.3-1.5-0.4-2.4c0.2-0.1,0.5-0.2,0.9-0.3c0.1-1.6-0.5-3-1-4.4
		c-1.4,0-2.5,0-3.9,0c0-0.6-0.1-1.3-0.1-1.9c0-1,0.1-1.9-0.8-2.7c-0.4-0.3-0.3-1.2-0.4-1.8c-0.3-0.1-0.6-0.2-1-0.3
		c0.9-1.3,0.5-2.7,0.6-3.9c-0.5-0.6-0.9-1.1-1.4-1.8c-0.3,0-0.9,0-1.4,0c-0.4-0.8-0.6-1.6-1.7-1.6c0-0.6,0-1.1,0-1.7
		c-0.5-0.3-1-0.6-1.5-0.9c0.2-1,0.3-2,0.5-3c-1-0.3-1.6-0.6-1.6-1.7c0-1.1-0.4-2.1-1.2-3c-0.3-0.3-0.2-0.9-0.3-1.4
		c-0.1-0.8-0.6-1.1-1.4-1.2c-0.1-1.6-0.6-3-1.7-4.3c-1.2-1.4-1.7-3.2-2.9-4.6c-1.7-2-2.7-4.6-4.7-6.6c-0.7-0.7-0.9-1.8-1.5-2.6
		c-0.5-0.7-1.5-1.4-1.4-2.7c0-0.4-0.8-1-1.6-1.3c-1.5-0.5-2.5-1.8-3.5-2.9c-0.2-0.2-0.1-0.8-0.3-1.1c-0.6-0.7-1.4-1.3-2.1-1.9
		c-0.9-0.7-1.9-1.2-2.6-2.3c-0.6-1-2-1.5-3-2.2c-0.6-0.3-1.2-0.5-2.1-0.9c0.9-1,1.6-1.7,2.4-2.6c-0.2-0.9-0.3-1.8-0.6-2.7
		c-0.2-0.5-0.6-1-1.3-0.9c-0.8,0.2-1.2-0.3-1.7-0.7c-0.5-0.5-1.1-1-1.7-1.2c-0.8-0.3-1.6-0.7-2.2-1.3c-0.4-0.3-1-0.8-1.4-0.7
		c-1.4,0.3-2.3-0.6-3-1.3c-1.6-1.5-3.3-1.8-5.3-1.8c-0.2,0-0.3,0-0.6,0c-0.9,1.1-1.9,2.3-2.8,3.4c-1.5,0-2.6-0.4-4.5-1.3
		c-0.9-0.4-2-0.5-3-0.7c-0.5-0.1-1,0-1.7,0c-0.2-0.3-0.4-0.7-0.7-1c-2.3,0.2-4.3,0.1-5.7-1.9c-1.1,0-2.1,0-3.1,0
		c-0.4-0.4-0.7-0.7-1-1c-0.5,0-1.1,0-1.7,0c-2.3-0.2-4.6,0.5-6.8-0.5c-0.2-0.1-0.6-0.1-0.7,0c-1.4,0.9-2.9,0.3-4.3,0.5
		c-0.5,0.5-0.9,0.9-1.5,1.5c-0.4,0-0.9,0-1.4,0c-0.9,0-1.7,0-2.5,0.8c-0.5,0.5-1.6,0.6-2.4,0.7c-0.7,0.1-1.4,0.1-2,0.7
		c-0.2,0.3-0.9,0.2-1.3,0.3c-1.1,0.2-2.3-0.5-3.3,0.4c-2.3-0.2-4.2,1-6.4,1.6c-0.4,0.1-0.9,0-1.7,0c1.3-1.1,2.4-2,3.6-3
		c1.4,0.3,2.8-1.4,4.1,0c0.9-0.9,1.7-1.7,2.4-2.4c1.2,0,2.2,0,3.2,0c0.9-0.7,1.5-2,3.1-1.6c0.2,0.1,0.6-0.5,0.8-0.7
		c-0.2-0.9-0.6-1.2-1.4-1.2c-1.7,0-3.5,0-5.2,0c-0.2,0-0.6-0.1-0.7,0.1c-1.4,1.3-3.3,0.8-4.9,1.4c-0.6,0.3-1.2,0.7-1.8,1
		c-1.4,0.7-2.8,0.5-4.2,0.5c-0.4,0.4-0.7,0.7-0.9,0.9c-1.7,0.3-3.4,0.5-5.3,0.8c-0.6,0.7-1.5,1.5-2.2,2.3c-2.1,0.1-2.2,0.2-4.1,2
		c-0.4,0-0.9,0-1.2,0c-1.4,1.4-2.7,2.7-4.1,4.1c0,0.6,0,1.4,0,2.1c0.8,0.6,1.4,1.1,2.3,1.9c-1.8,0.9-3.2,2-5.1,2.1
		c-0.3,0.6-0.5,1.2-0.9,1.8c-0.8,1-2,1.7-2.5,3c-0.2,0.4-1.1,0.6-1.7,0.7c-0.6,0.1-1.3,0-2,0c-0.8,1.1,0.2,1.6,0.8,2.4
		c-1.9,1-3.1,3-5.3,3.7c-0.7,0.2-1.1,1-0.7,1.9c-1.3-0.1-2.1,0.5-2.6,1.3c-1.1,1.9-1,1.9-2.8,2.8c-0.2-0.3-0.4-0.7-0.7-1.2
		c0.1-0.3,0.5-0.9,0.8-1.6c-0.3-0.5-0.7-1-1.1-1.7c-0.7,0-1.6,0-2.6,0c0,0.5,0,1.1,0,1.8c-1.2,0.1-2.4,0-2.9,1.4
		c0.9,1.8-0.9,2.5-1.7,3.6c0.3,1.2-0.3,2-1.3,2.6c-0.3,0-0.8,0-1.3,0c-1.2,0.8-1.6,2.7-3.4,3.1c0.3,1.1,0,2.1,0.4,3.2
		c0.6,1.5,0.2,3.2-0.9,4.5c-0.8,0.9-1.1,1.9-0.9,3.1c-1.9,0.8-2.9,2.3-4,4.2c-0.2,0.8,0.5,2.1-0.8,3c-0.2,0.1-0.2,0.6-0.2,0.9
		c0,0.7,0,1.5,0,2.2c-0.8,0.8-1.8,1.5-1.6,2.9c0,0.3-0.6,0.7-1,1.2c0.3,2.7-0.6,5.3-1,8c0,0.2,0,0.4,0,0.5c-1.4,0.9-0.9,2.4-0.9,3.6
		c-0.1,0.9,0,1.8,0,2.7c0.1,3.2-0.9,6.3-0.5,9.5c0,0.2,0,0.6-0.1,0.7c-1.3,0.9-0.7,2.2-0.9,3.4c0.5,0.5,1,1,1.5,1.5
		c0,1.8,0.2,3.8,0,5.6c-0.2,1.8,0.7,3.3,1.5,4.7c0.4,0.7,0.6,1.3,0.6,2c0,1.6,0.1,3.2,1.3,4.5c0.6,0.7-0.1,1.8,0.9,2.4
		c0.8,0.5,0.2,1.6,0.4,2.4c0.7,0.4,0.8,1.2,1.1,2c0.2,0.6,0.8,1,0.9,1.9c0.1,1,0.9,1.9,1.4,2.9c-1.1,1.1-1.6,1.3-2.4,0.1
		c-0.8-1.2-1.4-2.6-2-3.9c-0.3-0.6-0.3-1.4-0.5-2c-0.9-2.1-1.1-4.3-2.2-6.3c-0.2-0.4-0.1-1-0.3-1.4c-0.3-0.5-0.2-1.3-1-1.7
		c-0.7-0.3-1.2-0.6-1.9,0c-0.2,0.2-0.6,0-1,0c-0.2,0.9,0,1.6,0.3,2.4c0.3,0.7,0.1,1.6,0.1,2.4c0.4,0.4,0.7,0.7,1,1
		c0.1,2.1,0.1,2.1,1.4,4.9c0,0.1,0.1,0.1,0.1,0.2c0.2,0.9-0.1,1.9,0.3,2.9c0.4,0.9,1.6,1.3,1.2,2.5c0.6,0.5,0.7,1,0,1.6
		c-0.2,0.2,0,0.8,0.2,1.1c0.9,1.2,1.8,2.2,2.7,3.4c-0.4,1-0.4,1-0.4,2.5c0.2,0.2,0.4,0.3,0.5,0.5c0.4,0.7,0.6,1.5,1.1,2
		c0.4,0.5,1.2,0.8,1.7,1.3c0.5,0.5,1.3,0.8,1.2,1.8c0,0.2,0.3,0.6,0.4,0.8c1.1,1.3,2,3.5,2.6,5.2c0.4,1.4,1.1,2.6,2.5,3.4
		c0.9,0.5,1.7,1.2,2.5,1.8c-0.4,1.8,0.6,3,1.6,3.6c1.3,0.8,2,2.1,3.5,3c-0.3,0.8-0.6,1.6-0.9,2.5c-1.2-0.7-2.2-1.6-2.8-2.6
		c-1.2-1.8-2.9-3.1-4.3-4.7c-0.6-0.7-1.1-1.4-1.6-2.1c-0.3-0.4-0.5-1-0.9-1.4c-1.2-1.1-1.9-2.4-1.7-4.1
		C33.9,166.4,33.8,166,33.8,165.8z M109.9,18.7c0.6,1,1.6-0.8,2.2,0.2c0,0,0.5-0.3,0.7-0.5c0.2-0.2,0.4-0.5,0.6-0.9
		C111.5,17.5,111.3,17.6,109.9,18.7z M178.2,43.3c0.3,0.6,0.6,1.1,0.7,1.3c0.5-0.3,1-0.6,1.3-0.8c-0.4-0.5-0.8-1-1.2-1.4
		C178.8,42.7,178.6,43,178.2,43.3z M144.5,22c0.2,0.3,0.3,0.7,0.5,1.2C145.5,22.2,145.3,21.8,144.5,22z M139.9,21.5
		c0.1,0,0.2,0,0.2,0c0-0.3,0-0.7,0-1c-0.1,0-0.2,0-0.2,0C139.9,20.8,139.9,21.1,139.9,21.5z M142.8,21.8c0-0.1,0-0.2,0-0.2
		c-0.3,0-0.7,0-1,0c0,0.1,0,0.2,0,0.2C142.1,21.8,142.5,21.8,142.8,21.8z"/>
	<path class="st0" d="M105.2,211.4c0.1-0.6,0.2-1,0.2-1.4c1.2-0.1,1.2,0.9,1.7,1.6c0.1-0.6,0.2-1.1,0.3-1.8c0.7,0.5,1.2,0.8,1.8,1.2
		c3.7,0,7.5,0,11.4,0c0.3-0.3,0.6-0.6,1-1c1,0,2,0,3.2,0c0-0.6,0-1.2,0-1.9c1.3,0,2.5,0,3.8,0c0.3-0.4,0.6-0.8,0.8-1.1
		c3.2,0.3,6.2-0.4,9.3-0.6c0.5-0.8,1.4-1.3,2.3-0.9c0.6-0.6,1.1-1.1,1.4-1.4c1.9-0.2,3.7-0.3,5.4-0.7c0.9-0.2,1.6-0.8,2.5-1.2
		c1.1-0.5,2.1-1.4,3.5-1.3c0.5,0,1.1-0.3,1.4-0.7c0.8-0.7,1.5-1.6,2.7-1.3c0.8-1,2.3-0.8,3.1-1.6c1-0.9,2.4-1.1,3.4-2.2
		c0.8-0.9,2.3-1.1,3.5-1.8c0.7-0.4,1.2-1.2,1.9-1.4c0.8-0.2,1.5-0.5,2.1-1c0.7-0.5,1.1-1.2,1.8-1.7c0.5-0.4,1.2-0.4,1.7-0.8
		c0.5-0.4,0.9-1.1,1.4-1.4c1.3-0.6,2.1-1.8,3.1-2.7c0.8-0.7,1.5-1.7,2.8-1.8c0.6-0.1,1.1-0.6,1.5-1c0.7-0.7,1.2-1.5,1.8-2.2
		c0.6-0.7,1.5-1.1,1.2-2.2c0.7-0.5,1.4-0.9,2.4-1.6c0-0.1,0-0.7,0.2-1c0.9-1.2,2-2.3,3-3.5c0.7-0.9,2.1-1.4,2-2.9
		c0-0.2,0.3-0.4,0.5-0.5c1.5-1.5,2.8-3,3.6-5c0.4-1,1.5-1.7,1.9-3c0.3-1.1,1.3-1.9,1.9-3c0.6-1.1,1.1-2.3,2-3.2
		c0.2-0.2,0.5-0.6,0.5-0.8c-0.2-1.2,0.7-1.9,1-2.8c0.3-0.9,0.7-1.7,1.3-2.5c0.4-0.6,0.7-1.4,0.7-2.2c0-1,0.5-1.5,1.1-2.1
		c-0.7-0.8-1.5-1.5-2-2.4c-0.5-0.8-0.7-1.9-1.1-2.8c-1.4,0.9-1.6,2.4-1.9,3.6c-0.5,2-1.2,3.9-2,5.7c-0.7,1.5-1.8,2.9-2.8,4.3
		c-0.4,0.6-0.9,1.1-1.2,1.7c-0.7,1.7-1.7,3.4-2.7,4.1c-0.2,0.1-0.4,0.1-0.9,0.1c0.4-0.6,0.8-1.1,1-1.6c0.2-0.6,0-1.3,0-1.9
		c0.6-0.9,1.2-1.7,1.8-2.6c0.6-0.8,1.6-1.2,2.1-2.1c0.4-0.6,0.8-1.3,0.5-1.8c-0.9-1.2,0.4-2,0-3c0.6-0.1,1-0.1,1.5-0.2
		c0-0.6,0.1-1.1,0.1-1.7c0.5-0.3,1-0.6,1.3-0.8c0.2-1.4,0.5-2.6,0.6-3.9c0.1-0.8,0.9-1.1,1.1-2.1c0.4-1.9,0.4-3.7,0.4-5.6
		c0-3.6,1.4-6.7,3.7-9.5c0.9-1.1,1.8-2.1,2.9-3.1c1.6-1.3,3.5-1.8,5.3-2.4c1-0.3,2.2,0.1,3.3-0.5c0.2-0.1,0.6-0.1,0.7,0
		c1.2,0.8,2.5,0.4,3.8,0.5c1.1,0.1,2.1,0.5,3.1,1.1c0.3,0.2,0.7,0.3,1.1,0.4c1.1,0.7,2.3,1.3,3.4,2.1c0.4,0.3,0.6,1.1,0.9,1.8
		c-0.9,0-1.6,0-2.8,0c0,0-0.2-0.4-0.5-0.7c-1.8-1.8-3.9-2.7-6.4-2.7c-0.6,0-1.2,0-1.8-0.4c-0.4-0.3-1.4-0.3-1.9,0
		c-0.5,0.3-1,0.5-1.6,0.4c-0.5,0-1,0-1.5,0c-0.3,0.3-0.5,0.5-0.7,0.7c0,2.2,0,4.3,0,6.5c-1.6,1.6-1.6,1.6-2.9,0.7
		c0.7-1.7,0.2-3.5,0.4-5.6c-1,0.5-1.8,0.7-2.2,1.2c-1.9,1.9-3.2,4.2-3.9,6.9c-0.6,2.4-0.5,4.7-0.3,7.1c0.1,1.6,0.9,3.3,2.2,4.7
		c0.2-0.8,0.3-1.6,0.9-2.2c0.4-0.4,0.1-1.3,0.4-1.8c0.7-1.1-0.2-2.7,1.3-3.5c0-1.3,0-2.7,0-4c1-0.2,1.9-0.5,2.9-0.7
		c0,0.3,0.2,0.7,0.1,0.9c-0.6,1-0.6,2-0.4,3.1c0.3,2.2-0.4,4.1-1.3,6c-0.5,0.9,0.2,1.9-0.6,2.8c-0.5,0.6-0.5,1.6-0.8,2.6
		c1,0.7,1.9,1.3,2.7,1.8c1-0.3-0.1-1.8,1.5-1.5c0,0.7,0.1,1.5,0.2,2.3c2.4,1.1,5,0.9,7.5,0.6c1.9-0.2,4-0.7,5.5-2.2
		c0.3-0.3,0.7-0.4,1-0.7c1.1-0.9,2-2,1.9-3.6c-0.1-2.2,0-4.5,0-6.9c-3.3,0-6.5,0-9.7,0c-0.7,0-1.4,0.1-1.7-0.9
		c0.4-0.2,0.8-0.5,1.3-0.5c3.8,0,7.6,0,11.6,0c0.2,0.5,0.5,0.9,0.5,1.3c0,2.7,0.1,5.3,0,8c0,0.6-0.1,1.3-0.5,1.8
		c-1.1,1.4-2.2,2.8-3.9,3.6c-1.5,0.7-2.8,1.6-4.4,2c-0.5,0.1-1.1,0.2-1.6,0.3c-0.8,0.1-1.6-0.3-2.3,0.5c-0.1,0.2-0.8,0.2-0.9,0
		c-0.8-0.9-2-0.1-2.8-0.5c-0.9-0.5-1.8-0.5-2.8-0.4c-0.6,1-1.4,2-1.6,3.1c-0.2,0.9-0.5,1.6-0.9,2.4c-1.2,2.3-2.5,4.6-3.7,7
		c-0.1,0.1-0.1,0.3-0.2,0.4c-2.2,2-3.2,5-5.5,7c-0.6,0.5-0.2,1.6-1,2.1c-0.7,0.4-1.3,1.1-1.8,1.7c-0.5,0.7-1.2,0.8-1.9,0.8
		c-0.7,1.7-2,3.3-3.5,4.5c-0.5,0.4-1,0.9-1.4,1.4c-1.1,1.6-3.4,2-4.1,4c0,0.1-0.1,0.2-0.2,0.2c-1.8,0.2-2.5,2-3.9,2.7
		c-1.4,0.8-2.2,2.1-3.5,3.1c-0.2,0.2-0.5,0.3-0.8,0.4c-0.2,0.1-0.5,0-0.7,0.1c-0.6,0.4-1.3,0.7-1.7,1.2c-1.2,1.5-3.2,1.8-4.5,3.1
		c-1.2,1.3-3.2,1.4-4.2,3c-0.5,0-0.9,0-1.4,0c-1,0.8-2.2,1.5-3.1,2.5c-1,1.1-2.4,1.3-3.4,2c-1.1,0.8-2.4,0.9-3.3,1.7
		c-1.1,0.9-2.4,1.2-4,1.3c-0.3,0.4-0.8,1-1,1.3c-0.9,0.2-1.6,0.1-2,0.4c-1.2,1.2-2.7,1.4-4.2,1.2c-0.9,0.9-1.9,1.6-3.2,1.6
		c-0.5,0-1,0.5-1.6,0.9c-1.8,0.2-3.7,0.4-6,0.7c-0.1,0.1-0.4,0.5-0.6,0.7c-2.3,0.3-4.4,0.5-6.9,0.8c-0.1,0.2-0.3,0.6-0.4,0.9
		c-5.9-0.3-11.4,0.8-16.9,0.5c-2.7-0.2-5.5,0-8.2,0C103.6,211.1,104.6,211.6,105.2,211.4z M210.7,155c0.1-1.1,0.2-2.3,0.4-3.4
		c-0.1,0-0.4-0.1-0.8-0.3c0.7-0.3,1.5-0.5,1.8-0.9c0.4-0.6,0.6-1.4,0.7-2.2c0.1-0.6,0-1.3,0-1.9c-0.5-0.5-0.8-0.9-1.3-1.3
		c-0.7,0.7-1.3,1.5-1.2,2.5c0.1,1.1-0.5,1.9-0.9,2.7c0.2,0.4,0.3,0.7,0.5,1.1c-0.4,0.2-0.7,0.3-1,0.4c0,1.1,0,2.2,0,3.4
		C209.6,155,210.1,155,210.7,155z"/>
	<path class="st0" d="M189.4,115.1c-0.4-0.2-0.8-0.5-1.1-0.6c0.3-1.2,0.5-2.1,0.7-3c1,0,2.1,0,3.1,0c0.9,1.8,0.7,3.7,0.7,5.7
		c1.1,1.1,2.3,2.4,3.6,3.6c1.8,1.7,2.5,4,3.3,6.1c0.5,1.4,0.7,3,0.5,4.5c-0.3,3-0.7,6.1-2.4,8.7c-1.1,1.6-1.8,3.6-3.8,4.4
		c-0.7,1.4-2.4,1.6-3.5,2.4c-1.1,0.7-2.6,0.9-4,1c-1.6,0.2-3.2,0.2-4.7,0c-2.7-0.3-5.2-1.1-7.2-3.1c-0.9-0.9-1.8-1.6-2.7-2.5
		c-1.5-1.5-2.3-3.4-3-5.3c-0.4-1-0.6-2.1-0.6-3.3c0-0.8-0.5-1.7-0.4-2.5c0.3-2,0.1-4.1,1.4-5.9c0.2-2.6,1.9-4.4,3.6-6
		c1.2-1.2,2.6-2.3,4.3-2.9c1.1-0.4,2.2-0.6,3.4-0.9c0.9-0.2,1.9,0.1,2.8-0.5c0.3-0.2,0.9-0.2,1.2,0C186,116,187.6,115.2,189.4,115.1
		z M188.3,117.5c-1.1-0.1-2.1,0.2-2.8-0.2c-2.1-1.1-4.2-0.2-6,0.4c-2.2,0.7-4.3,1.8-5.9,3.7c-1.7,2-2.5,4.3-3.2,6.7
		c-0.2,0.8,0,1.7,0,2.5c-1.3,0.8,0.2,1.5,0,2.3c-0.3,1.4,0.1,2.7,0.7,3.9c0.6,1.2,0.7,2.8,2.1,3.6c0.3,1.6,2,1.8,2.8,2.8
		c0.6,0.8,1.5,1.2,2.3,1.6c1.4,0.7,2.9,1.2,4.6,1c1.6,1.1,3.2-0.5,4.8-0.1c2.6-0.9,4.9-2.2,6.7-4.3c1.5-1.7,2.2-3.9,3.4-5.8
		c0.1-0.2,0.1-0.5,0.1-0.7c-0.4-1.9,0.5-3.6,0.1-5.6c-0.6-2.9-1.6-5.7-3.6-7.8c-0.1-0.1-0.2-0.1-0.3-0.2c-0.1,0.3-0.2,0.6-0.3,0.9
		c-0.6,0-1.2,0-1.7,0c-0.3-0.8-0.6-1.6-0.8-2.4c-0.8-0.3-1.5-0.5-2.1-0.7C188.8,118.6,188.5,118.1,188.3,117.5z"/>
	<path class="st0" d="M354.7,115.4c1,0.5,1.4,1.4,1.9,2.2c2,2.8,4.6,5.3,6.4,8.3c0.8,1.3,2,2.4,3,3.5c0.1,0.1,0.1,0.1,0.2,0.2
		c1.3,2.5,3.5,4.3,5.1,6.6c0.6,0.9,1.1,1.9,1.8,2.7c0.9,1.2,2,2.4,3,3.5c0.2,0.3,0.6,0.4,1.2,0.8c0-1,0-1.8,0-2.5c0-7.7,0-15.3,0-23
		c0-0.8-0.3-1.7,0.6-2.2c0.3,0.4,0.7,0.8,1.3,1.6c0,9.5,0,19.5,0,29.8c-0.5,0.2-1,0.4-1.7,0.7c-7.2-9.3-14.3-18.5-21.7-28.1
		c0,1.1,0,1.8,0,2.5c0,7.4,0,14.8,0,22.2c0,1-0.3,2-0.4,3c-0.6,0-1,0-1.4,0c-0.4-0.9-0.7-1.7-0.7-2.7c0-8.7,0-17.3,0-26
		C353.3,117.4,353.6,116.2,354.7,115.4z"/>
	<path class="st0" d="M242.9,115.3c0.8,0.4,1.5,0.5,2,1.4c0.8,1.3,1.9,2.4,2.9,3.5c0.1,0.1,0.3,0.2,0.3,0.4c1.2,2.7,3.7,4.3,5.1,6.9
		c0.6,1,1.3,2,2.2,2.8c1.6,1.5,2.7,3.4,4,5.1c1.1,1.4,2.2,2.9,3.4,4.4c0.9,1.2,1.8,2.4,2.7,3.6c0,0,0,0,0.1-0.1
		c0-0.1,0.1-0.1,0.1-0.2c0-8.8,0-17.6,0-26.4c0.4-0.4,0.8-0.8,1.1-1.1c0.3,0.4,0.7,0.8,1,1.2c0.1-0.1,0.2-0.2,0.4-0.2
		c0,1.2,0,2.3,0,3.5c0,8.2,0,16.3,0,24.5c0,1.1-0.2,2-0.8,3.1c-0.4-0.2-1-0.2-1.3-0.5c-1.2-1.2-2.3-2.5-3.4-3.8
		c-0.7-0.9-1-2-1.8-2.7c-2.6-2.4-4.1-5.8-6.6-8.3c-1.4-1.4-2.5-3.1-3.6-4.7c-1.1-1.6-2.7-2.9-3.6-4.8c-0.4-0.8-1.1-1.5-1.8-2.2
		c-0.1-0.1-0.3,0-0.7,0c0,0.7,0,1.4,0,2.1c0,7.2,0,14.5,0,21.7c0,1-0.3,2-0.4,3c-0.6,0-1,0-1.5,0
		C242.9,136.8,242.9,126.2,242.9,115.3z"/>
	<path class="st0" d="M713.7,115.3c7.3,9.4,14.5,18.8,22.2,28.7c0-1.2,0-1.8,0-2.4c0-8,0-16,0-24c0-0.8-0.2-1.7,1-2.1
		c0.9,0.2,1,0.8,1,1.8c0,5.7,0,11.5,0,17.2c0,4.1,0,8.2,0,12.2c-1.3,1-2,1.1-2.4,0.1c-0.4-1-1.2-1.5-1.8-2.2
		c-0.5-0.7-1.1-1.4-1.6-2.1c-2.2-3.4-5.3-6.2-7.3-9.7c-0.7-1.2-1.9-2-2.7-3.1c-2.1-3.1-4.5-6-6.8-8.9c-0.2-0.3-0.4-0.5-0.9-0.9
		c0,9.2,0,18.1,0,27.2c-0.7,0.2-1.2,0.4-1.8,0.6c-0.1-0.3-0.3-0.5-0.3-0.6c0-9.8,0-19.7,0-29.5C712.3,116.7,712.2,115.8,713.7,115.3
		z"/>
	<path class="st0" d="M514.6,147.9c-3.4,0.5-6.2-1-8.9-2.5c-1-0.5-1.8-1.5-2.5-2.4c-1.4-1.8-2.9-3.4-3.5-5.8c-0.9-3.7-1-5.3-0.5-9.1
		c0.3-1.9,0.8-3.7,1.6-5.3c1.9-3.9,5.4-5.9,9.3-7.3c0.5-0.2,1.2,0,1.7,0c0.7-0.1,1.5,0.3,2.1-0.4c0.1-0.1,0.5-0.1,0.7-0.1
		c2.4,0.7,5,0.5,7.2,1.8c2.4,1.4,4.6,2.7,6.1,5.1c1.1,1.9,2.5,3.7,2.3,6c1,1.7,0.6,3.6,0.4,5.3c-0.4,2.9-0.8,5.9-3.1,8.2
		c-0.7,0.8-1.4,1.8-2.2,2.6c-1.9,1.8-4,2.9-6.5,3.5C517.5,147.9,516.1,147.9,514.6,147.9z M528.7,131.3c0.7-2-0.9-3.8-1-5.9
		c0-0.5-0.6-1-0.9-1.6c-1.4-2.3-3.3-4.1-5.7-5.3c-1.4-0.7-2.9-1.3-4.5-1.1c-2.2-1.5-4.4,0.4-6.6,0.1c-1.4,0.8-2.9,1.5-4.3,2.3
		c-0.8,0.5-2.6,2.8-3.2,4.1c-0.3,0.6-0.4,1.3-0.8,1.9c-0.6,1.1-0.3,2.2-0.5,3.3c-0.6,3.3-0.6,3.8,0.2,6.8c0.3,1.1,0.6,2.2,1.3,3.2
		c2.4,3.4,4,5,8.5,6.5c1.2,0.4,2.5,0.9,3.6,0.7c0.8-0.2,1.7-0.3,2.6-0.4c0.9-0.1,2-0.2,2.7-0.7c1.8-1.3,4-2.3,5.2-4.2
		c1-1.5,2.3-2.8,2.7-4.6C528.5,134.8,529.1,133.2,528.7,131.3z"/>
	<path class="st0" d="M597.6,122.3c-1.2,0.3-1.9,0.1-2.2-0.6c-1.1-2.1-2.7-3.5-5-4c-1.2-0.3-2.4-0.6-3.7-0.7c-1.3-0.1-2.7-0.1-4,0
		c-1.3,0.1-2.6,0.1-3.8,0.5c-1.7,0.7-3.5,1.5-4.9,2.6c-1.8,1.4-2.2,4.4-1.2,6.3c0.8,1.4,2.3,2.8,3.8,3c2.7,0.4,5.3,1.4,8.1,1.1
		c0.8-0.1,1.7,0.4,2.5,0.4c1,0.1,2-0.1,3,0.1c0.8,0.1,1.6,0.9,2.3,0.9c2.3-0.1,3.5,1.5,4.8,2.9c1,1,1.3,3.8,1.2,5.3
		c-0.2,2.5-1.9,3.9-3.4,5.3c-1.3,1.2-3.2,1.5-4.9,2.1c-1.3,0.4-2.5,0.4-3.8,0.5c-0.4,0-0.8,0.2-1.1,0.3c-0.4,0.1-0.8,0.3-1.1,0.2
		c-2.7-0.8-5.5-0.3-8.1-1.5c-2.1-1-4.4-1.7-5.5-4c-0.5-1.1-0.7-1-0.7-2.8c1-0.5,1.7-0.2,2,0.9c0.7,2.4,3.1,3,4.8,4.4
		c0.5,0.4,1.4-0.1,2,0.6c2.6,0,5.2,1,7.8,0.5c2.1-0.4,4.3-0.7,6.2-1.9c1.5-0.9,2.3-2.3,3.7-3.2c0-1.5,0-3,0-4.8
		c-0.3-0.3-0.9-0.6-1.3-1.1c-0.7-1-1.8-1.2-2.8-1.8c-1-0.6-2-0.4-3-0.7c-2.2-0.5-4.4-0.3-6.5-0.5c-2.1-0.2-4.3-0.5-6.3-1.1
		c-2.5-0.7-5.1-1.9-5.8-4.9c-0.5-2.3-0.4-4.6,0.8-6.7c0.4-0.7,1.2-1,1.8-1.5c1.6-1.2,3.4-1.9,5.2-2.6c0.3-0.1,0.6-0.2,0.9-0.2
		c1.2-0.1,2.4,0.2,3.6-0.5c0.3-0.2,0.9-0.2,1.2,0c1.5,0.7,3,0.3,4.5,0.5c1.3,0.2,2.6,0.4,3.8,1.2c0.7,0.5,1.6,0.9,2.4,1.3
		C596.6,118.9,596.8,120.6,597.6,122.3z"/>
	<path class="st0" d="M772.3,119.3c0,0.5,0,0.9,0,1.6c-0.6,0-1.2,0.1-1.7,0c-0.3-0.1-0.6-0.6-0.9-0.8c-2-1.4-4-2.7-6.7-2.6
		c-0.4,0-0.9-0.3-1.3-0.3c-0.8,0-1.6,0-2.4,0.1c-0.1,0-0.3,0.2-0.4,0.2c-1,0.1-2.1-0.3-3,0.5c-1.2-0.5-1.4,1.4-2.6,1
		c-0.1,0-0.4,0.2-0.6,0.3c-1.7,1.7-3.6,3.2-4.4,5.7c-0.3,0.8-0.7,1.5-1.1,2.3c-0.2,0.3-0.4,0.7-0.4,1.1c-0.1,0.9,0,1.7-0.4,2.6
		c-0.3,0.5-0.3,1.4,0.2,2.1c0.1,0.2,0.2,0.4,0.2,0.7c0.1,0.9,0,1.7,0.4,2.6c1.1,2,1.8,4.2,3.5,5.8c1.3,1.2,3,2,4.4,3.1
		c0.6,0.5,1.3,0.2,1.9,0.3c4.1,1.1,8.3,0.6,11.4-1.5c1.2-0.8,2.1-2.1,3.3-3.5c0-1,0-2.4,0-3.8c0-1.3,0-2.6,0-4.1
		c-3.9,0-7.6,0-11.4,0c-0.2-1,0.3-1.3,1-1.5c0.3-0.1,0.7,0,1,0c3.6,0,7.2,0,10.7,0c0.4,0.9,0.8,1.7,0.8,2.8c-0.1,2.2-0.1,4.3,0,6.5
		c0,0.9-0.3,1.8-0.9,2.4c-1.4,1.4-2.8,2.7-4.4,3.8c-0.8,0.6-1.8,0.8-2.8,1c-1.2,0.3-2.4,0.4-3.5,0.5c-0.8,0-1.4,1.1-2.2,0.4
		c-0.7-0.7-1.6-0.2-2.4-0.3c-0.8-0.1-1.4-0.7-2.3-0.5c-0.1,0-0.2,0-0.2,0c-2.3-1.7-5.5-2.3-6.8-5.3c-1.7-1.5-2.5-3.6-3.2-5.7
		c-0.1-0.4-0.2-0.8-0.3-1.1c-0.1-0.9,0.1-1.9-0.4-2.8c-0.3-0.5,0.1-1.4,0.2-2.1c0-0.2,0.2-0.4,0.2-0.7c0.2-4.3,2.2-7.7,5.1-10.6
		c1-1,2.1-2,3.6-2.2c1.5-1.6,3.4-1.5,5.4-1.5c0.6,0,1.2-0.5,1.8-0.4c3.1,0.6,6.4,0.6,9.2,2.5C770.7,118,771.4,118.6,772.3,119.3z"/>
	<path class="st0" d="M331.5,114.3c0.5,0.8,1.2,0.7,1.5,1.5c0.7,2,1.9,3.9,2.8,5.8c1,2.2,2.3,4.2,3.3,6.4c1,2.2,2.1,4.3,3.2,6.4
		c1.7,3.4,3.5,6.7,5.2,10.1c0.6,1.1,1,2.1,0.7,3.4c-0.9,0.3-1.5,0.1-1.9-0.9c-1.1-2.4-2.3-4.7-3.5-7c-0.2-0.4-0.4-0.7-0.7-1
		c-7,0-14,0-21.1,0c-1.4,2.7-2.8,5.4-4.2,8.1c-0.4,0.8-1,1-1.8,0.8c-0.4-0.9-0.1-1.6,0.3-2.4c2.8-5.6,5.6-11.1,8.5-16.7
		c0.5-1,1-2.1,1.5-3.1c0.5-1,1.1-2,1.6-3.1c0.5-1,0.9-1.9,1.4-2.9c0.5-1,1-2.1,1.6-3.1C330.4,115.8,330.9,115.1,331.5,114.3z
		 M341.3,136.9c-1.7-3.3-3.3-6.4-4.9-9.6c-1.5-3.1-3-6.3-4.8-9.4c-1.7,3.3-3.3,6.3-4.8,9.5c-1.5,3.2-3.3,6.2-4.6,9.6
		C328.7,136.9,334.9,136.9,341.3,136.9z"/>
	<path class="st0" d="M309.8,117.7c0,0-0.1-0.1-0.2-0.2c-0.1,0-0.1-0.1-0.2-0.1c-7.6,0-15.3,0-23,0c0-0.6,0-1.2,0-1.8
		c0.2-0.2,19.1-0.4,26.3-0.1c0.2,0.2,0.5,0.4,0.6,0.7c0.1,0.2,0,0.5,0,0.7c-0.1,0.1-0.1,0.3-0.2,0.4c-1.7,1.9-3.5,3.8-5,5.9
		c-0.4,0.5-0.9,1-1.4,1.4c-2.3,2.2-4.3,4.6-6.2,7.2c-1.1,1.6-2.5,3-3.9,4.4c-2.2,2.3-4.5,4.5-6.2,7.2c-0.4,0.7-1.1,1.1-1.9,2
		c0.9,0,1.4,0,2,0c6.6,0,13.2,0,19.7,0c1,0,2.1-0.1,3,1c0,0.1,0,0.5,0,1c-9.3,0-18.5,0-27.8,0c-0.5-1.1,0.2-1.9,0.9-2.7
		c1.4-1.7,3.1-3.2,4.4-5c1.4-2,3.3-3.4,4.8-5.3c2.1-2.7,4.6-5.1,6.6-8c0.3-0.5,0.8-0.8,1.2-1.2c2.2-2.3,4.4-4.7,6.5-7
		C309.9,118.1,309.8,117.9,309.8,117.7z"/>
	<path class="st0" d="M538.5,115.4c0.6,0.5,1.7,0.2,1.8,1.4c2.6,2.3,4,5.7,6.5,8.1c0.9,0.8,1.4,2.1,2.2,3.1c0.8,1.1,1.8,2.1,2.6,3.2
		c1.2,1.6,2.5,3.1,3.7,4.7c0.8,1,1.4,2.1,2.2,3.1c1.2,1.5,2.4,3,3.7,4.7c0.1-0.6,0.1-1.1,0.1-1.7c0-7.8,0-15.7,0-23.5
		c0-1.1,0.2-2,0.8-3.1c0.4,0.3,0.8,0.5,1.1,0.7c0,10.5,0,20.9,0,31.3c-0.4,0-0.8,0-1.2,0c-3.2-2.3-4.8-5.9-7.2-8.8
		c-2.5-2.9-4.7-6-7-9c-2.3-2.9-4.5-5.9-6.8-9c-0.2,0-0.6,0-1.2,0c0,8.9,0,17.9,0,26.8c-1.5,0-1.5,0-1.5-0.9c0-10.2,0-20.3,0-30.5
		C538.3,115.8,538.4,115.7,538.5,115.4z"/>
	<path class="st0" d="M445.3,131c0,0.6,0,1,0,1.4c-7.1,0-14.2,0-21.3,0c0,4.4,0,8.6,0,12.9c0.4,0.8,1.2,0.6,2,0.6
		c5.4,0,10.8,0,16.2,0c1.3,0,2.7,0,4.1,0c0,0.4,0,0.8,0,1.3c-0.2,0.2-15.3,0.4-24.4,0.1c0-0.7,0-1.4,0-2.2c0-9.2,0-18.3,0-27.5
		c0-0.8-0.3-1.7,0.8-2.3c7.2,0,14.6,0,22,0c0.7,0,1.3,0.2,1.7,1c-0.2,0.3-0.5,0.7-0.8,1c-7.2,0-14.4,0-21.5,0
		c-0.1,0.1-0.1,0.1-0.2,0.2c0,0.1-0.1,0.1-0.1,0.2c0,4.3,0,8.6,0,13.1C431,131,438.1,131,445.3,131z"/>
	<path class="st0" d="M605.1,116.4c0.2-0.4,0.3-0.8,0.4-1c1.3,0.3,1.3,1.2,1.3,2c0,5.7,0,11.3,0,17c0,1.8,0.6,3.5,1.3,5.2
		c1.2,3.1,3.8,4.6,6.5,5.8c2.5,1.1,5.4,0.9,8,0.4c2.5-0.5,4.8-1.9,6.6-4c0.8-0.9,1.4-1.9,1.9-2.9c0.4-0.9,0.5-2,0.7-3
		c1-5.1,0.3-10.4,0.5-15.5c0.1-1.6,0-3.3,0-5.1c1.6,0.4,2,1.5,2,2.6c0.1,5,0.2,10-0.1,15c-0.1,2.2-0.6,4.5-1.4,6.6
		c-0.9,2.4-2.3,4.4-4.3,5.9c-1.4,1-2.8,1.9-4.6,2.2c-0.5,0.1-0.9,0.3-1.4,0.3c-1.8,0-3.7,0.1-5.5,0c-1.2-0.1-2.4-0.7-3.6-0.9
		c-2.2-0.4-3.6-2.1-5.1-3.4c-1.6-1.4-2.5-3.5-3.1-5.7c-0.5-1.8-0.4-3.5-0.4-5.3c0-5.5,0-11,0-16.5
		C604.9,116.3,605,116.3,605.1,116.4z"/>
	<path class="st0" d="M163,140c0.2,0.6,0.4,1,0.7,1.8c-0.6,1.8-2.5,3.1-4.5,4.2c-1,0.5-2,1.2-3.1,1.4c-1.1,0.2-2.1,0.9-3.3,0.6
		c-1.8,0.9-3.6,0.1-5.3-0.1c-2.2-0.3-4.4-1.2-6.1-2.7c-2.6-2.1-4.6-4.7-5.8-7.8c-0.4-0.9-0.5-2-0.7-3c-0.2-0.9,0.3-2-0.5-2.8
		c-0.1-0.1-0.1-0.4,0-0.5c1-1.2-0.1-2.9,1-4.1c0.3-2.5,1.6-4.5,3.1-6.5c1.9-2.7,4.8-3.8,7.6-5c0.6-0.3,1.5,0,2.2-0.1
		c0.9-0.1,1.9,0.4,2.8-0.4c0.3-0.3,1.2-0.3,1.4,0c0.7,0.7,1.4,0.5,2.1,0.4c1.9-0.1,3.5,0.8,5,1.7c1.4,0.8,2.5,2,3.7,3.1
		c-0.7,1.1-0.7,1.1-1.8,1.3c-1.1-1-2.1-2-3.3-2.9c-0.8-0.6-1.8-0.3-2.3-1.1c-2.2-0.1-4.3-1.1-6.6-0.1c-1.1,0.5-2.5,0-3.8,0.6
		c-2.3,1.1-4.7,1.9-5.9,4.4c-0.4,0.8-1.3,1.5-1.7,2.3c-0.7,1.3-1,2.8-1.2,4.3c-0.1,0.6,0.2,1.3-0.4,1.8c-0.2,0.2,0,0.8,0.1,1.1
		c0.1,0.5,0.3,0.9,0.3,1.3c0.1,2.6,1.3,5.6,3,7.5c2,2.3,4.3,4.2,7.4,4.9c0.5,0.1,0.9,0.3,1.4,0.3c1.2,0,2.5,0,3.7,0
		c3.1,0,5.6-1.3,7.9-3.2C161.1,142.1,161.8,141.2,163,140z"/>
	<path class="st0" d="M494.3,140.3c0,0.9,0,1.4,0,2c-1.3,1.1-2.4,2.7-4.1,3.6c-1.9,1-3.8,1.7-5.9,2.1c-0.8,0.2-1.6-0.2-2.3,0.5
		c-0.2,0.2-0.7-0.1-1.1-0.2c-0.4-0.1-0.8-0.3-1.1-0.3c-2.7,0.2-4.9-1.1-7-2.4c-3.4-2-5.4-5.2-6.5-9c-1-3.1-1-4.5-0.5-7.9
		c0.4-2.8,1.6-5.1,3-7.5c1-1.7,2.5-2.7,4-3.6c2.2-1.3,4.5-2.4,7.1-2.1c0.5,0.1,1.1,0.2,1.6-0.4c0.2-0.2,0.9-0.2,1.2-0.1
		c1.2,0.7,2.5,0.4,3.8,0.5c0.8,0.1,1.6,0.3,2.2,0.7c1.7,1.1,3.4,2.3,5.1,3.4c0,0.6,0,1.2,0,1.8c-0.4,0-0.8,0-1.3,0
		c-1.1-1.4-2.5-2.6-4.3-3.3c-2.4-1-4.9-1.3-7.5-1.1c-0.4,0-0.7,0.5-1,0.5c-2.5-0.4-4.4,1-6.4,2.1c-1.8,1-3.2,2.6-4.1,4.4
		c-0.9,1.9-1.8,3.8-1.8,6c0,1.2-0.1,2.4,0,3.5c0.2,1.1,0.6,2.1,1,3.1c1,2.9,2.8,5.2,5,7.2c1.3,0.2,2.1,1.3,3.3,1.7
		c1.2,0.4,2.5,0.4,3.8,0.5c0.7,0.1,1.5,0,2.2,0c3.3,0.2,5.9-1.4,8.3-3.4c0.6-0.5,1.1-1.2,1.8-1.7
		C493.1,140.6,493.6,140.5,494.3,140.3z"/>
	<path class="st0" d="M414.1,140.5c0.3,0,0.7,0,1.1,0c0.1,0.2,0.2,0.4,0.2,0.6c0,1.4-0.9,2.2-1.9,3c-2.8,2.3-5.8,4-9.6,3.9
		c-1.1,0-2.2-0.1-3.2,0c-1.7,0.2-3.1-0.5-4.6-1.1c-3.7-1.7-6.7-4.3-8.2-8.2c-0.1-0.3-0.5-0.5-0.5-0.8c0-1.9-1.2-3.4-1.1-5.3
		c0.1-2.5,0.2-4.9,1.1-7.3c0.7-1.9,1.6-3.6,3-5c1.3-1.4,2.6-2.9,4.6-3.3c0.5-0.1,0.9-0.9,1.3-0.9c1-0.1,1.7-0.7,2.8-0.6
		c1,0.1,2.1,0.5,3.1-0.4c0.1-0.1,0.5-0.1,0.7,0c2.9,0.7,6.1,0.5,8.8,2.4c1.2,0.9,2.2,1.9,3.2,2.9c0.2,0.2,0,0.6,0,0.9
		c-0.7,0.4-1.3,0.2-1.8-0.3c-1-1.1-2.3-1.7-3.4-2.6c-1.3-1.1-2.9-0.9-4.2-1.3c-1.3-0.4-2.9-0.6-4.3,0.3c-0.4,0.2-1,0.1-1.5,0.1
		c-2.4,0.1-4.4,1-6.2,2.6c-0.2,0.2-0.3,0.4-0.5,0.5c-2.3,1.8-3.8,4.1-4.1,7c-1,1.2-0.4,2.5-0.5,3.8c-0.3,5.2,2.3,9,6,12.3
		c1.1,0.9,4.9,2.3,6.3,2.3c1,0,2-0.1,3,0c3.3,0.2,5.9-1.4,8.3-3.4C412.7,142,413.3,141.2,414.1,140.5z"/>
	<path class="st0" d="M682.9,147.4c-0.8,0-1.4,0-2,0c0-9.9,0-19.8,0-29.9c-4.5,0-9,0-13.4,0c-0.2-0.5-0.4-0.9-0.6-1.5
		c0.3-0.2,0.7-0.6,1.2-0.6c1.6-0.1,3.2,0,4.7,0c7.7,0,15.5,0,23.2,0c0.2,0.2,0.4,0.4,0.6,0.6c-0.2,0.4-0.4,0.8-0.6,1.4
		c-4.4,0-8.7,0-13.2,0C682.9,127.4,682.9,137.3,682.9,147.4z"/>
	<path class="st0" d="M645.4,146c7.2,0,14.2,0,21.3,0c0,0.5,0,0.9,0,1.5c-0.4,0-0.9,0-1.4,0c-6.8,0-13.7,0-20.5,0
		c-0.7,0-1.6,0.3-2.1-1.1c0-5.8,0-12,0-18.2c0-3.2,0-6.5,0-9.7c0-1.1,0.3-2,0.7-2.9c1.4,0.2,1.3,1.1,1.3,2c0,8.2,0,16.5,0,24.7
		c0,0.8-0.1,1.7,0,2.5C644.9,145.1,645.2,145.5,645.4,146z"/>
	<path class="st0" d="M34.3,110.3c-0.2,0.2-0.5,0.5-0.8,0.8c1,1.6,1.5,3.3,1.4,5.4c-0.5,0-0.9,0-1.3,0c-0.7-0.1-1.2-0.5-1.2-1.3
		c0-4.5-0.1-9,0.1-13.5c0.1-1.1,0.8-2.5,0.3-3.5c-0.7-1.4-0.3-2.7-0.4-4.1c0-0.8,0.6-1.6,0.5-2.5c-0.1-0.8,0-1.6,0-2.4
		c1.1-0.9,1.3-2.2,1.5-3.4c0.1-0.7,0.2-1.2,0.6-1.8c0.5-0.7,0.7-1.7,1.1-2.5c1.3-0.1,2.1,0.5,2.9,1.3c-0.1,0.7-1.2,1.3,0,1.9
		c-0.5,0.3-1,0.6-1.5,0.9c0,0.9,0,1.8,0,2.6c-1.4,1.1-1.2,2.6-1.5,4c-0.2,0.7,0,1.5,0,2.2c0,0.3,0,0.8-0.1,0.9
		c-1.2,0.8-0.8,2-0.9,3.2c0,1.7,0.3,3.6-0.1,5.2C34.1,105.9,34.5,108,34.3,110.3z"/>
	<path class="st0" d="M278,115.2c0.2,0.7,0.4,1.3,0.7,2c0.2-0.2,0.4-0.3,0.5-0.5c0,10.1,0,20.1,0,30.1c-0.5,0.7-1.1,1-1.7,0.7
		c-0.7-0.3-0.7-1-0.7-1.7c0-5.1,0-10.2,0-15.2c0-4.2,0-8.3,0-12.5C276.8,117,277,116.1,278,115.2z"/>
	<path class="st0" d="M703.3,147.4c-0.7,0-1.3,0-1.8,0c-0.1-0.2-0.2-0.3-0.2-0.5c0-9.7,0-19.5,0-29.2c0-0.9-0.3-1.9,0.9-2.3
		c1.3,0.2,1.1,1.2,1.1,2.1c0,6.6,0,13.1,0,19.7C703.3,140.6,703.3,143.9,703.3,147.4z"/>
	<path class="st0" d="M45.7,154c-1.7-1.4-3-3-3.9-5c-0.3-0.7-0.9-1.3-1.5-2c0.1-0.4,0.3-0.9,0.4-1.4c-0.1,0-0.4-0.1-0.8-0.2
		c-0.1-1.3-0.2-2.8,0.1-4.3c-0.3,0-0.9-0.1-1.6-0.2c0-0.4,0-0.8,0-1.3c0.7,0,1.4-0.1,2.1-0.1c0.4,0.4,0.8,0.8,1.2,1.2
		c0,0.2,0.1,0.3,0.1,0.5c0.2,1.3-0.5,2.6,0.5,3.8c-0.3,1.4,0.7,2.1,1.5,2.8c-0.2,0.7-0.4,1.3-0.7,2.2c0.6,0,1,0.1,1.4,0.1
		c0.2,0.5,0.4,1.1,0.7,1.6c0.3,0.6,0.6,1.1,1,1.7C46.1,153.4,45.9,153.7,45.7,154z"/>
	<path class="st0" d="M68.4,179.6c2.4,0,2.9,2.7,4.9,3.1c0,0.4,0,0.8,0,1.1c-0.6,0.6-2.4,0-3.4-1C69,181.9,69.3,180.5,68.4,179.6z"
		/>
	<path class="st0" d="M36.3,126.4c-0.4,0-0.5,0.1-0.7,0.1c-0.7-0.3,0.1-1.8-1.2-1.6c-0.2-0.7-0.5-1.3-0.6-2
		c-0.3-1.1,0.5-1.8,1.5-2.5c0.2,0.6,0.4,1.1,0.5,1.6c0.1,0.5,0,1,0,1.5c0,0.5-0.2,1.1,0.3,1.6C36.4,125.4,36.3,125.9,36.3,126.4z"/>
	<path class="st0" d="M154.7,188.5c1.3,0,2.4,0,3.4,0c0.4-0.6,0.8-1.1,1.4-1.9c0.4,1.2,0.6,2-0.5,2.9
		C157.7,189.4,156.2,189.9,154.7,188.5z"/>
	<path class="st0" d="M53,175.6c2.8-0.2,2.8-0.1,2.6,2.4C54.5,177.7,53.8,176.8,53,175.6z"/>
	<path class="st0" d="M36.6,154.4c-0.4,0-0.8,0-1.2,0c-0.1-0.8-1-1.4-0.5-2.5c1.7-0.1,1.1,1.7,2.1,2C37,154.1,36.8,154.3,36.6,154.4
		z"/>
	<path class="st0" d="M45.9,153.4c0.5,0.9,0.7,1.3,0.9,1.7c0.3,0.4,0.6,0.7,1,1.1c-0.2,0.2-0.4,0.4-0.8,0.8c-0.2-0.5-0.5-1-0.7-1.5
		c-0.1,0.1-0.3,0.2-0.4,0.3C45.9,155.2,45.9,154.6,45.9,153.4z"/>
	<path class="st0" d="M145.5,186.8c-0.5,1.6-1.2,2.3-2.5,2.2C144,187.5,144,187.5,145.5,186.8z"/>
	<path class="st0" d="M88.9,27.7c-0.8,0.3-1.5,0.6-2.7,1.1C87.5,27,87.5,27,88.9,27.7z"/>
	<path class="st0" d="M67.3,202.6c-0.8-0.3-1.7-0.6-2.5-0.9c0.1-1.2,1-0.9,1.3-0.7c0.5,0.3,0.9,0.9,1.4,1.3
		C67.4,202.4,67.3,202.5,67.3,202.6z"/>
	<path class="st0" d="M195,157.7c0.7,1.4-0.7,1.5-1,2.7c-0.1-0.9-1.1-0.9-0.4-1.5C194.1,158.5,194.5,158.2,195,157.7z"/>
	<path class="st0" d="M102.5,209.1c0.6,0.5,0.9,0.7,1.1,0.9c0.1,0.2,0.2,0.4,0.2,0.6C102.3,211,102.3,211,102.5,209.1z"/>
	<path class="st0" d="M108.3,207.1c0,0.2,0,0.4,0,0.8c-0.3,0-0.6,0-0.9,0c-0.3,0-0.6,0-0.9,0C106.5,207,106.5,207,108.3,207.1z"/>
	<path class="st0" d="M102.1,206.5c1.1,0,1.9,0,2.6,0C103.7,207.8,103.7,207.8,102.1,206.5z"/>
	<path class="st0" d="M92.3,205c0.8,0,1.6,0,2.5,0C93.6,206.3,93.6,206.3,92.3,205z"/>
	<path class="st0" d="M134.3,192.1c0,0.2,0,0.4,0,0.8c-0.6,0-1.3,0-1.9,0C132.5,192,132.5,192,134.3,192.1z"/>
	<path class="st0" d="M62.1,192.9c-0.4,0.8-0.7,1.2-1,1.7c-0.4-0.5-0.6-0.8-1.1-1.4C60.8,193.1,61.2,193,62.1,192.9z"/>
	<path class="st0" d="M191.4,162.1c-0.2-1.2,0.4-1.5,1.3-1.7C193,161.5,192.4,161.8,191.4,162.1z"/>
	<path class="st0" d="M78.3,31.5c0,1.3-0.8,0.9-1.5,0.9c0.1-0.3,0.1-0.8,0.2-0.8C77.4,31.5,77.9,31.5,78.3,31.5z"/>
	<path class="st0" d="M66.1,198c-0.9,0-1.1-0.6-1.3-1.4C65.7,196.6,65.7,196.6,66.1,198z"/>
	<path class="st0" d="M48.9,159.8c-0.1-0.3-0.4-0.7-0.9-1.6c1,0.4,1.4,0.6,2.2,1C49.6,159.5,49.2,159.6,48.9,159.8z"/>
	<path class="st0" d="M182.7,168c0.5,0,0.8,0,1.1,0c0,0.5,0,0.9,0,1.4C182.2,169.5,183.1,168.6,182.7,168z"/>
	<path class="st0" d="M165.1,176.8c-0.5,0.1-0.8,0.2-1.1,0.3c0-0.6,0-1,0-1.8C164.4,175.9,164.7,176.2,165.1,176.8z"/>
	<path class="st0" d="M100.2,211c0.7,0,1.1,0,1.5,0c-0.7,1-0.7,1.1-1.2,0.9C100.4,211.8,100.3,211.5,100.2,211z"/>
	<path class="st0" d="M172.7,177.6c0.1,0.1,0.3,0.3,0.7,0.7c-0.6,0.1-1,0.1-1.5,0.2c-0.1-0.1-0.1-0.2-0.2-0.3
		C172.1,178,172.4,177.8,172.7,177.6z"/>
	<path class="st0" d="M40.7,162.6c0.1,0.1-0.1-0.1-0.5-0.5c0.3-0.1,0.6-0.2,0.8-0.2c0.2,0,0.4,0,1.2,0.2
		C41.5,162.4,41.1,162.5,40.7,162.6z"/>
	<path class="st0" d="M75.6,33.6c-0.4,0.2-0.6,0.4-0.9,0.4c-0.1,0-0.4-0.4-0.4-0.4c0.1-0.2,0.4-0.4,0.6-0.5
		C75,33,75.2,33.2,75.6,33.6z"/>
	<path class="st0" d="M67.9,178.8c-0.4,0.1-0.7,0.3-1,0.4C66.6,178.7,66.9,178.4,67.9,178.8z"/>
	<path class="st0" d="M157.5,178.5c0.9-0.3,0.9,0.3,0.5,1C157.8,179.2,157.6,178.9,157.5,178.5z"/>
	<path class="st0" d="M160,34.5c0.1,0.1,0.3,0.2,0.3,0.3c0.1,0.2,0.1,0.4,0.2,0.7c-0.2-0.1-0.5,0-0.6-0.2c-0.1-0.1-0.1-0.4,0-0.6
		C159.9,34.6,160,34.5,160,34.5z"/>
	<path class="st0" d="M66.7,202.5c1.3-0.1,1.9,0,1.5,0.9C67.8,203.2,67.4,202.9,66.7,202.5z"/>
	<path class="st0" d="M47.2,180.8c-0.3-0.3-0.5-0.5-0.7-0.8C47.1,179.8,47.5,179.9,47.2,180.8z"/>
	<path class="st0" d="M81.9,29.6c0.3,0,0.6,0,0.8,0c0,0.1,0,0.2,0,0.2c-0.3,0.1-0.5,0.1-0.8,0.2C81.9,29.8,81.9,29.7,81.9,29.6z"/>
	<ellipse class="st0" cx="160.8" cy="179.7" rx="0.7" ry="0.2"/>
	<ellipse class="st0" cx="48.6" cy="182" rx="0.2" ry="0.7"/>
	<path class="st0" d="M50.2,182.9c-0.3,0-0.6,0-0.8,0c0-0.1,0-0.2,0-0.2c0.3-0.1,0.5-0.1,0.8-0.2C50.2,182.6,50.2,182.7,50.2,182.9z
		"/>
	<path class="st0" d="M51.4,184.1c0.3,0,0.6,0,0.8,0c0,0.1,0,0.2,0,0.2c-0.3,0.1-0.5,0.1-0.8,0.2C51.4,184.3,51.4,184.2,51.4,184.1z
		"/>
	<ellipse class="st0" cx="163.8" cy="184.2" rx="0.7" ry="0.2"/>
	<ellipse class="st0" cx="49.3" cy="185.7" rx="0.7" ry="0.2"/>
	<ellipse class="st0" cx="164.6" cy="174.5" rx="0.2" ry="0.7"/>
	<ellipse class="st0" cx="38.8" cy="75.7" rx="0.7" ry="0.2"/>
	<path class="st0" d="M70.9,188.6c0.3,0,0.6,0,0.8,0c0,0.1,0,0.2,0,0.2c-0.3,0.1-0.5,0.1-0.8,0.2C70.9,188.8,70.9,188.7,70.9,188.6z
		"/>
	<path class="st0" d="M55.7,190.4c-0.3,0-0.6,0-0.8,0c0-0.1,0-0.2,0-0.2c0.3-0.1,0.5-0.1,0.8-0.2C55.7,190.1,55.7,190.2,55.7,190.4z
		"/>
	<path class="st0" d="M70.7,199.4c-0.3,0-0.6,0-0.8,0c0-0.1,0-0.2,0-0.2c0.3-0.1,0.5-0.1,0.8-0.2C70.7,199.1,70.7,199.2,70.7,199.4z
		"/>
	<path class="st0" d="M127.4,199.1c0.3,0,0.6,0,0.8,0c0,0.1,0,0.2,0,0.2c-0.3,0.1-0.6,0.1-0.8,0.2
		C127.4,199.3,127.4,199.2,127.4,199.1z"/>
	<ellipse class="st0" cx="73.3" cy="34.2" rx="0.7" ry="0.2"/>
	<path class="st0" d="M82.9,202.1c0.3,0,0.6,0,0.8,0c0,0.1,0,0.2,0,0.2c-0.3,0.1-0.6,0.1-0.8,0.2C82.9,202.3,82.9,202.2,82.9,202.1z
		"/>
	<ellipse class="st0" cx="119.6" cy="207.5" rx="0.2" ry="0.7"/>
	<path class="st0" d="M164.2,181.8c-0.1,0.1-0.1,0.1-0.2,0.2c-0.1-0.1-0.1-0.2-0.2-0.3c0,0,0.1-0.1,0.2-0.2
		C164.1,181.6,164.2,181.7,164.2,181.8z"/>
	<path class="st0" d="M161.5,35.9c-0.1-0.1-0.1-0.1-0.2-0.2c0.1-0.1,0.2-0.1,0.3-0.2c0,0,0.1,0.1,0.2,0.2
		C161.7,35.8,161.6,35.8,161.5,35.9z"/>
	<path class="st0" d="M192.1,123.5c-1,1.5-0.8,3-0.7,4.4c0,0.9-0.2,1.4-1.3,1.6c-0.1-0.4-0.3-0.8-0.2-1.1c0.6-1.3,0.8-2.5,0-3.9
		c-0.4-0.7,0.1-1.1,1-1.1C191.1,123.5,191.4,123.5,192.1,123.5z"/>
</g>
</svg>
